<svg width="44" height="58" viewBox="0 0 44 58" fill="none" xmlns="http://www.w3.org/2000/svg">
<g filter="url(#filter0_d)">
<path d="M16.7609 19.2929V1.11108C16.7609 1.11108 10.8687 4.04038 10.8687 10.2693C10.8687 16.4983 16.7609 19.2929 16.7609 19.2929Z" fill="#cdcdcd"/>
<path d="M16.7612 1.11108C16.7612 1.11108 22.6535 4.04038 22.6535 10.2693C22.6535 16.4983 16.7612 19.2929 16.7612 19.2929V1.11108Z" fill="#eee"/>
<path d="M30.4645 27.8114L38.5453 23.2323C38.5453 23.2323 35.7507 21.3468 32.9897 22.9293C30.2288 24.5118 30.4645 27.8114 30.4645 27.8114Z" fill="#cdcdcd"/>
<path d="M38.5452 23.2323C38.5452 23.2323 38.7135 26.5993 35.9526 28.1481C33.1916 29.7306 30.4644 27.8114 30.4644 27.8114L38.5452 23.2323Z" fill="#eee"/>
<path d="M38.9495 22.4916C38.8148 22.4242 35.4141 20.6061 32.5185 22.2896C30.1953 23.6364 29.7576 26.2963 29.6566 27.4074L28.5791 28.0135C28.0404 27.5084 27.3333 27.1717 26.5253 27.1717C25.7172 27.1717 25.0101 27.4748 24.4714 28.0135L19.6229 25.1852C19.6902 24.9495 19.7239 24.7138 19.7239 24.4781C19.7239 23.1313 18.8148 21.9865 17.6027 21.6498V19.899C19.0168 18.9899 23.5286 15.6566 23.5286 10.3704C23.5286 4.24242 17.468 0.43771 17.1987 0.26936L16.7609 0L16.3232 0.26936C16.0539 0.43771 9.99327 4.24242 9.99327 10.3704C9.99327 15.6566 14.5051 18.9562 15.9192 19.899V21.6498C14.6734 21.9865 13.798 23.1313 13.798 24.4781C13.798 24.7138 13.8316 24.9495 13.899 25.1852L9.01684 28.0135C8.47811 27.5084 7.77104 27.1717 6.96296 27.1717C5.3468 27.1717 4 28.4848 4 30.1347C4 31.4815 4.90909 32.6263 6.12121 32.963V38.8216C4.90909 39.1919 4 40.303 4 41.6498C4 43.266 5.31313 44.6128 6.96296 44.6128C7.83838 44.6128 8.61279 44.2424 9.15152 43.6364L13.899 46.3636C13.8316 46.5993 13.798 46.835 13.798 47.0707C13.798 48.6869 15.1111 50 16.7609 50C18.3771 50 19.7239 48.6869 19.7239 47.0707C19.7239 46.835 19.6902 46.5993 19.6229 46.3636L24.3704 43.6364C24.9091 44.2424 25.6835 44.6128 26.5589 44.6128C28.1751 44.6128 29.5219 43.2997 29.5219 41.6498C29.5219 40.303 28.6128 39.1583 27.4007 38.8216V32.963C28.6128 32.5926 29.5219 31.4815 29.5219 30.1347C29.5219 29.899 29.4882 29.6633 29.4545 29.4613L30.532 28.8552C31.1381 29.1583 32.3838 29.6296 33.7643 29.6296C34.6061 29.6296 35.5152 29.4613 36.3906 28.9562C39.2525 27.3064 39.4209 23.4343 39.4209 23.2997V22.7946L38.9495 22.4916ZM27.367 31.1448C27.1313 31.3131 26.862 31.4141 26.5589 31.4141C26.3906 31.4141 26.2559 31.3805 26.0875 31.3131C25.9529 31.2795 25.8519 31.2121 25.7508 31.1111C25.4815 30.9091 25.3131 30.6061 25.2458 30.2694C25.2458 30.202 25.2458 30.1347 25.2458 30.0673C25.2458 30 25.2458 29.9663 25.2458 29.899C25.3131 29.4276 25.6162 29.0236 26.0539 28.8552C26.1886 28.7879 26.3569 28.7542 26.5253 28.7542C26.6936 28.7542 26.8956 28.7879 27.0303 28.8552C27.5017 29.0572 27.8384 29.5286 27.8384 30.0673C27.8384 30.1347 27.8384 30.202 27.8047 30.2694C27.771 30.6734 27.6027 30.9428 27.367 31.1448ZM27.8384 41.6498C27.8384 42.3906 27.2323 42.963 26.5253 42.963C26.2896 42.963 26.0202 42.8956 25.8519 42.7609C25.4815 42.5253 25.2121 42.1212 25.2121 41.6498V41.6162C25.2121 41.4815 25.2458 41.3468 25.2795 41.2121C25.3468 40.9764 25.5152 40.7744 25.7172 40.6061C25.8855 40.4714 26.0875 40.3704 26.2896 40.3367C26.3569 40.3367 26.4242 40.303 26.5253 40.303C26.8283 40.303 27.1313 40.404 27.3333 40.5724C27.67 40.8418 27.8384 41.2121 27.8384 41.6498ZM25.7172 38.8216C25.3131 38.9226 24.9428 39.1246 24.6397 39.3939L19.6566 36.4983C19.6902 36.2963 19.7239 36.1279 19.7239 35.9259C19.7239 35.6566 19.6902 35.3535 19.5892 35.1178L24.5051 32.2559C24.8418 32.5926 25.2458 32.8283 25.7172 32.963V38.8216ZM16.7609 48.3838C16.0875 48.3838 15.5488 47.9125 15.4478 47.2727C15.4478 47.2054 15.4478 47.1381 15.4478 47.0707C15.4478 46.532 15.7845 46.0606 16.2559 45.8586C16.4242 45.7912 16.5926 45.7576 16.7609 45.7576C16.9293 45.7576 17.0976 45.7912 17.266 45.8586C17.7374 46.0606 18.0741 46.532 18.0741 47.0707C18.0741 47.1381 18.0741 47.2054 18.0741 47.2727C17.9731 47.8788 17.4007 48.3838 16.7609 48.3838ZM13.8653 36.4983L8.88215 39.3939C8.57912 39.1246 8.20875 38.9226 7.80471 38.8216V32.963C8.27609 32.8283 8.68013 32.5926 9.01684 32.2559L13.9327 35.0842C13.8653 35.3535 13.798 35.6229 13.798 35.9259C13.798 36.1279 13.8316 36.33 13.8653 36.4983ZM8.30976 41.6498C8.30976 42.1212 8.07407 42.5253 7.67003 42.7609C7.46801 42.8956 7.23232 42.963 6.99663 42.963C6.25589 42.963 5.6835 42.3569 5.6835 41.6498C5.6835 41.2458 5.88552 40.8418 6.18855 40.6061C6.42424 40.4377 6.6936 40.3367 6.99663 40.3367C7.06397 40.3367 7.16498 40.3367 7.23232 40.3704C7.46801 40.404 7.63636 40.5051 7.80471 40.6397C8.00673 40.7744 8.14141 41.0101 8.24242 41.2458C8.27609 41.3805 8.30976 41.5152 8.30976 41.6498C8.30976 41.6162 8.30976 41.6162 8.30976 41.6498ZM5.64983 30.1347C5.64983 29.3939 6.25589 28.8216 6.96296 28.8216C7.13131 28.8216 7.29966 28.8552 7.43434 28.9226C7.87205 29.0909 8.17508 29.495 8.24242 29.9663C8.24242 30.0337 8.24242 30.101 8.24242 30.1684C8.24242 30.2357 8.24242 30.303 8.24242 30.3704C8.20875 30.7071 8.00673 31.0101 7.73737 31.2121C7.63636 31.2795 7.53535 31.3468 7.40067 31.4141C7.26599 31.4815 7.09764 31.5152 6.92929 31.5152C6.62626 31.5152 6.32323 31.4141 6.12121 31.2458C5.85185 30.9091 5.64983 30.5387 5.64983 30.1347ZM15.9529 23.4343C16.1886 23.266 16.4579 23.165 16.7609 23.165C17.064 23.165 17.367 23.266 17.569 23.4343C17.8384 23.6364 18.0067 23.9394 18.0404 24.2761C18.0404 24.3434 18.0404 24.4108 18.0404 24.4781C18.0404 24.8822 17.8384 25.2862 17.5354 25.5219C17.4343 25.5892 17.3333 25.6566 17.1987 25.7239C17.064 25.7912 16.8956 25.8249 16.7273 25.8249C16.5589 25.8249 16.3906 25.7912 16.2559 25.7239C16.1212 25.6902 16.0202 25.6229 15.9192 25.5219C15.6162 25.2862 15.4141 24.9158 15.4141 24.4781C15.4141 24.4108 15.4141 24.3434 15.4141 24.2761C15.5152 23.9394 15.6835 23.6364 15.9529 23.4343ZM18.0741 35.9596C18.0741 36.3636 17.8721 36.7003 17.569 36.936C17.5017 36.9697 17.4343 37.037 17.367 37.0707C17.165 37.1717 16.963 37.2391 16.7273 37.2391C16.4916 37.2391 16.2896 37.1717 16.1212 37.0707C16.0539 37.037 15.9865 37.0034 15.9192 36.936C15.6162 36.7003 15.4141 36.33 15.4141 35.9259V35.8923C15.4141 35.7576 15.4141 35.6566 15.4478 35.5556C15.5152 35.2862 15.6835 35.0505 15.8855 34.8485C16.0202 34.7475 16.1886 34.6465 16.3906 34.6128C16.4916 34.5791 16.5926 34.5791 16.7273 34.5791C16.862 34.5791 16.963 34.5791 17.064 34.6128C17.2323 34.6465 17.4007 34.7475 17.5354 34.8485C17.7374 35.0168 17.9057 35.2525 17.9731 35.5219C18.0067 35.6229 18.0067 35.7576 18.0067 35.8923C18.0741 35.9259 18.0741 35.9596 18.0741 35.9596ZM23.6633 29.4276C23.596 29.6633 23.5623 29.899 23.5623 30.1347C23.5623 30.3704 23.596 30.6397 23.6633 30.8754L18.7138 33.7374C18.3771 33.4343 18.0067 33.2323 17.569 33.0976V27.3064C18.0404 27.1717 18.4444 26.936 18.7811 26.5993L23.6633 29.4276ZM11.6431 10.404C11.6431 6.06061 15.4478 2.92929 16.7609 1.98653C18.0741 2.92929 21.8788 6.06061 21.8788 10.404C21.8788 14.0404 19.1852 16.6667 17.569 17.9125V11.0438C17.569 10.6061 17.1987 10.2357 16.7609 10.2357C16.2896 10.2357 15.9529 10.6061 15.9529 11.0438V17.9125C14.303 16.6667 11.6431 14.0404 11.6431 10.404ZM14.7071 26.5993C15.0438 26.936 15.4815 27.1717 15.9192 27.3064V33.0976C15.4815 33.2323 15.1111 33.4343 14.7744 33.7037L9.79125 30.8418C9.85859 30.6061 9.89226 30.3704 9.89226 30.1347C9.89226 29.899 9.85859 29.6633 9.79125 29.4276L14.7071 26.5993ZM9.89226 42.1549C9.92593 41.9865 9.92593 41.8182 9.92593 41.6498C9.92593 41.3468 9.89226 41.0438 9.79125 40.7407L14.6397 37.9461C14.9764 38.3165 15.4478 38.5859 15.9529 38.7542V44.2424C15.4815 44.3771 15.0774 44.6128 14.7071 44.9495L9.89226 42.1549ZM18.8148 44.9495C18.4781 44.6128 18.0404 44.3771 17.569 44.2424V38.7542C18.0741 38.6195 18.5455 38.3165 18.8822 37.9461L23.7306 40.7407C23.6296 41.0101 23.596 41.3131 23.596 41.6498C23.596 41.8182 23.596 41.9865 23.6296 42.1549L18.8148 44.9495ZM35.5152 27.5084C34.4377 28.1145 33.2256 28.0135 32.2828 27.7778L33.899 26.835C34.303 26.5993 34.4377 26.1279 34.202 25.7239C33.9663 25.3199 33.495 25.1852 33.0909 25.4209L31.4747 26.3636C31.7104 25.4545 32.2492 24.3434 33.3266 23.7037C34.8754 22.7946 36.7946 23.367 37.67 23.7374C37.5354 24.6465 37.0976 26.5993 35.5152 27.5084Z" fill="black"/>
</g>
<defs>
<filter id="filter0_d" x="0" y="0" width="43.4209" height="58" filterUnits="userSpaceOnUse" color-interpolation-filters="sRGB">
<feFlood flood-opacity="0" result="BackgroundImageFix"/>
<feColorMatrix in="SourceAlpha" type="matrix" values="0 0 0 0 0 0 0 0 0 0 0 0 0 0 0 0 0 0 127 0" result="hardAlpha"/>
<feOffset dy="4"/>
<feGaussianBlur stdDeviation="2"/>
<feComposite in2="hardAlpha" operator="out"/>
<feColorMatrix type="matrix" values="0 0 0 0 0 0 0 0 0 0 0 0 0 0 0 0 0 0 0.25 0"/>
<feBlend mode="normal" in2="BackgroundImageFix" result="effect1_dropShadow"/>
<feBlend mode="normal" in="SourceGraphic" in2="effect1_dropShadow" result="shape"/>
</filter>
</defs>
</svg>
