<svg width="314" height="231" viewBox="0 0 314 231" fill="none" xmlns="http://www.w3.org/2000/svg">
<g opacity="0.9">
<path d="M161.932 0.815651L0.0780861 0.815673L0.0780912 37.5908L84.6107 37.5908L84.6107 67.8732C84.6107 71.4078 83.3613 74.8171 81.1235 77.4409C79.8424 78.9367 78.2925 80.1065 76.5845 80.9087C74.8764 81.7109 73.0102 82.137 71.1045 82.137L51.5885 82.137C46.3536 82.137 42.0993 86.6326 42.0993 92.1643L42.0993 116.648C42.0993 122.188 46.3536 126.675 51.5885 126.675L75.1216 126.675C80.3644 126.675 84.6108 122.188 84.6108 116.648L84.6108 94.6378C84.6108 91.6881 85.5992 88.847 87.3863 86.5908C88.5092 85.1787 89.901 84.0673 91.4509 83.3069C92.9928 82.5465 94.693 82.1454 96.4327 82.1454L127.13 82.1454L127.13 171.138L161.932 171.138L161.932 0.815651Z" fill="white"/>
<path d="M20.4081 120.962L20.0632 120.962C9.02455 120.962 0.078151 130.423 0.0781526 142.08C0.0781542 153.737 9.02456 163.199 20.0632 163.199L20.4081 163.199C31.4468 163.199 40.3932 153.745 40.3932 142.08C40.3932 136.256 38.1585 130.97 34.5439 127.151C30.9218 123.323 25.9275 120.962 20.4081 120.962Z" fill="white"/>
</g>
<path fill-rule="evenodd" clip-rule="evenodd" d="M279.279 35.8781L186.802 35.8781V0.817139L280.846 0.817139C298.923 0.817139 313.577 15.4533 313.577 33.5079L313.577 198.309C313.577 216.364 298.923 231 280.846 231L1.07755 231L1.07751 195.939L279.279 195.939L279.279 35.8781Z" fill="url(#paint0_linear_149_122)" fill-opacity="0.9"/>
<defs>
<linearGradient id="paint0_linear_149_122" x1="75.5" y1="218" x2="356" y2="-93" gradientUnits="userSpaceOnUse">
<stop stop-color="white"/>
<stop offset="1" stop-color="white" stop-opacity="0"/>
</linearGradient>
</defs>
</svg>
